# xmcd CD database file
#
# Track frame offsets:
#	150
#	13500
#	36451
#	52944
#	72119
#	92190
#	104701
#	123839
#	143352
#	156424
#	169939
#	179268
#	195972
#	209289
#	225451
#	246366
#	262610
#	275777
#	294910
#	307226
#	322639
#	336149
#
# Disc length: 4662 seconds
#
# Revision: 8
# Processed by: cddbd v1.5.2PL0 Copyright (c) Steve Scherf et al.
# Submitted via: CDex 1.51
#
DISCID=34123416
DTITLE=Bobby Bare - Down and Dirty...plus
DYEAR=2006
DGENRE=Country
TTITLE0=Good For Nuthin' Blues (Live)
TTITLE1=Numbers (Live)
TTITLE2=Some Days Are Diamonds (Some Days Are Stone) (Live)
TTITLE3=Tequila Sheila (Live)
TTITLE4=Rock Star's Lament (Live)
TTITLE5=Crazy Again (Live)
TTITLE6=Tecumseh Valley (Live)
TTITLE7=Blind Willie Harper (Live)
TTITLE8=Rough On The Living (Live)
TTITLE9=Down To My Last Come And Get Me (Live)
TTITLE10=Qualudes Again (Live)
TTITLE11=Goin' Back To Texas (Live)
TTITLE12=I Can't Watch The Movie Anymore (Live)
TTITLE13=The Gambler
TTITLE14=This Guitar Is For Sale
TTITLE15=Goin' Up's Easy, Comin' Down's Hard
TTITLE16=Sleep Tight, Good Night Man
TTITLE17=Summer Wages
TTITLE18=Take Me As I Am (Or Let Me Go)
TTITLE19=Goodnight Irene
TTITLE20=(I'm not) A Candle In The Wind
TTITLE21=Diet Song
EXTD=YEAR: 2006
EXTT0=
EXTT1=
EXTT2=
EXTT3=
EXTT4=
EXTT5=
EXTT6=
EXTT7=
EXTT8=
EXTT9=
EXTT10=
EXTT11=
EXTT12=
EXTT13=Bonus track
EXTT14=Bonus track
EXTT15=Bonus track
EXTT16=Bonus track
EXTT17=Bonus track
EXTT18=Bonus track
EXTT19=Bonus track
EXTT20=Bonus track
EXTT21=Bonus track
PLAYORDER=
